<?xml version="1.0" encoding="iso-8859-1"?>
<!-- Generator: Adobe Illustrator 19.0.0, SVG Export Plug-In . SVG Version: 6.00 Build 0)  -->
<svg version="1.1" id="Capa_1" xmlns="http://www.w3.org/2000/svg" xmlns:xlink="http://www.w3.org/1999/xlink" x="0px" y="0px"
	 viewBox="0 0 511.998 511.998" style="enable-background:new 0 0 511.998 511.998;" xml:space="preserve">
<g>
	<g>
		<path d="M497.22,476.138c-6.53-4.49-15.475-10.639-31.771-10.639c-16.296,0-25.241,6.149-31.772,10.639
			c-5.029,3.457-7.799,5.361-14.778,5.361c-6.978,0-9.747-1.904-14.774-5.361c-6.531-4.49-15.476-10.639-31.771-10.639
			s-25.239,6.149-31.771,10.639c-5.027,3.457-7.798,5.361-14.775,5.361s-9.746-1.904-14.773-5.36
			c-6.531-4.49-15.476-10.64-31.771-10.64s-25.239,6.149-31.77,10.64c-5.027,3.457-7.797,5.36-14.773,5.36
			c-6.978,0-9.747-1.904-14.774-5.361c-6.531-4.49-15.476-10.639-31.771-10.639s-25.239,6.149-31.771,10.64
			c-5.027,3.457-7.797,5.36-14.773,5.36c-6.978,0-9.747-1.904-14.774-5.36c-6.531-4.49-15.476-10.64-31.771-10.64
			s-25.238,6.149-31.77,10.639c-5.027,3.457-7.797,5.361-14.774,5.361s-9.746-1.904-14.773-5.36
			c-6.532-4.491-15.476-10.64-31.77-10.64v30c6.976,0,9.745,1.904,14.772,5.36c6.53,4.49,15.475,10.64,31.77,10.64
			s25.239-6.149,31.771-10.64c5.027-3.457,7.797-5.36,14.773-5.36c6.979,0,9.748,1.904,14.775,5.361
			c6.531,4.49,15.476,10.639,31.771,10.639s25.238-6.149,31.77-10.639c5.027-3.457,7.797-5.361,14.774-5.361
			s9.747,1.904,14.774,5.361c6.531,4.49,15.476,10.639,31.771,10.639s25.239-6.149,31.77-10.64c5.027-3.457,7.797-5.36,14.773-5.36
			c6.978,0,9.747,1.904,14.774,5.361c6.53,4.49,15.475,10.639,31.77,10.639c16.296,0,25.24-6.149,31.771-10.64
			c5.027-3.457,7.797-5.36,14.774-5.36s9.747,1.904,14.774,5.361c6.531,4.49,15.476,10.639,31.771,10.639
			c16.296,0,25.241-6.149,31.772-10.639c5.029-3.457,7.799-5.361,14.778-5.361c6.979,0,9.749,1.904,14.778,5.361
			c6.531,4.49,15.477,10.639,31.772,10.639v-30C505.019,481.499,502.249,479.595,497.22,476.138z"/>
	</g>
</g>
<g>
	<g>
		<polygon points="420,163.497 420,124.251 312,124.251 312,86.218 200,86.218 200,124.251 92,124.251 92,163.497 155,163.497 
			155,193.497 92,193.497 92,254.134 256,181.594 420,254.134 420,193.497 357,193.497 357,163.497 		"/>
	</g>
</g>
<g>
	<g>
		<rect x="200" y="0.499" width="112" height="55.718"/>
	</g>
</g>
<g>
	<g>
		<path d="M497.222,416.134c-6.531-4.49-15.477-10.639-31.772-10.639c-16.295,0-25.241,6.149-31.772,10.639
			c-5.029,3.457-7.799,5.361-14.778,5.361c-6.408,0-9.271-1.61-13.589-4.55l64.715-107.881L271,221.033v185.04
			c-11.232,1.629-18.175,6.397-23.506,10.062c-2.451,1.685-4.367,2.998-6.494,3.905V221.033L41.976,309.064l58.099,96.852
			c-2.174-0.262-4.485-0.421-6.989-0.421c-16.295,0-25.238,6.149-31.77,10.639c-5.027,3.457-7.797,5.361-14.774,5.361
			s-9.746-1.904-14.773-5.36c-6.53-4.49-15.475-10.64-31.769-10.64v30c6.976,0,9.745,1.904,14.772,5.36
			c6.53,4.49,15.475,10.64,31.77,10.64c16.295,0,25.239-6.149,31.771-10.64c5.027-3.457,7.797-5.36,14.773-5.36
			c6.979,0,9.748,1.904,14.775,5.361c6.531,4.49,15.476,10.639,31.771,10.639s25.238-6.149,31.77-10.639
			c5.027-3.457,7.797-5.361,14.774-5.361s9.747,1.904,14.774,5.361c6.531,4.49,15.476,10.639,31.771,10.639
			s25.239-6.149,31.77-10.64c5.027-3.457,7.797-5.36,14.773-5.36c6.978,0,9.747,1.904,14.774,5.361
			c6.53,4.49,15.475,10.639,31.77,10.639c16.296,0,25.24-6.149,31.771-10.64c5.027-3.457,7.797-5.36,14.774-5.36
			s9.747,1.904,14.774,5.361c6.531,4.49,15.476,10.639,31.771,10.639c16.296,0,25.241-6.149,31.772-10.639
			c5.029-3.457,7.799-5.361,14.778-5.361c6.979,0,9.749,1.904,14.778,5.361c6.531,4.49,15.477,10.639,31.772,10.639v-30
			C505.021,421.495,502.251,419.591,497.222,416.134z M144.073,369.013c-8.409,0-14.636-6.873-15-15c-0.363-8.101,7.154-15,15-15
			c8.409,0,14.636,6.873,15,15C159.436,362.114,151.919,369.013,144.073,369.013z M365.798,369.013c-8.409,0-14.636-6.873-15-15
			c-0.363-8.101,7.154-15,15-15c8.41,0,14.636,6.873,15,15C381.161,362.114,373.644,369.013,365.798,369.013z"/>
	</g>
</g>
<g>
</g>
<g>
</g>
<g>
</g>
<g>
</g>
<g>
</g>
<g>
</g>
<g>
</g>
<g>
</g>
<g>
</g>
<g>
</g>
<g>
</g>
<g>
</g>
<g>
</g>
<g>
</g>
<g>
</g>
</svg>
